# xmcd CD database file
#
# Track frame offsets:
#	150
#	14112
#	25457
#	34334
#	47749
#	55575
#	68873
#	76792
#	91230
#	100054
#	112929
#	120134
#	131996
#	140316
#	151507
#	160848
#	171049
#	186485
#	201722
#
# Disc length: 2822 seconds
#
# Revision: 0
# Processed by: cddbd v1.5.2PL0 Copyright (c) Steve Scherf et al.
# Submitted via: CDex 1.70beta2
#
DISCID=fb0b0413
DTITLE=Frank Sinatra - Platinum CD3
DYEAR=1998
DGENRE=Jazz
TTITLE0=Begin The Beguine
TTITLE1=Blue Skies
TTITLE2=I've Got My Love To Keep Me Warm
TTITLE3=A Lover Is Blue
TTITLE4=I'll String Along With You
TTITLE5=The Music Stopped
TTITLE6=S'Wonderful
TTITLE7=A Ghost Of A Chance
TTITLE8=They Didn't Believe Me
TTITLE9=You Make Me Feel So Young
TTITLE10=What Can I Say After I Say I'm Sorry
TTITLE11=You Do Something To Me
TTITLE12=On The Sunny Side Of The Street
TTITLE13=Just One Of Those Things
TTITLE14=I'm In The Mood For Love
TTITLE15=From Out Of Nowhere
TTITLE16=Laura
TTITLE17=You Are Love
TTITLE18=Don't Blame Me
EXTD=YEAR: 1998
EXTT0=
EXTT1=
EXTT2=
EXTT3=
EXTT4=
EXTT5=
EXTT6=
EXTT7=
EXTT8=
EXTT9=
EXTT10=
EXTT11=
EXTT12=
EXTT13=
EXTT14=
EXTT15=
EXTT16=
EXTT17=
EXTT18=
PLAYORDER=
